<?xml version="1.0" encoding="utf-8"?>
<!-- Generator: Adobe Illustrator 16.0.0, SVG Export Plug-In . SVG Version: 6.00 Build 0)  -->
<!DOCTYPE svg PUBLIC "-//W3C//DTD SVG 1.0//EN" "http://www.w3.org/TR/2001/REC-SVG-20010904/DTD/svg10.dtd">
<svg version="1.0" id="Layer_1" xmlns="http://www.w3.org/2000/svg" xmlns:xlink="http://www.w3.org/1999/xlink" x="0px" y="0px"
	 width="100px" height="100px" viewBox="0 0 100 100" enable-background="new 0 0 100 100" xml:space="preserve">
<path fill="#FFC00E" d="M49.999,11.669c-1.777,0-3.301,1.198-3.809,2.799l-7.597,23.423H14.024c-2.226,0-4.024,1.82-4.024,4.053
	c0,1.331,0.665,2.525,1.681,3.251v-0.039l19.842,14.486l-7.577,23.42c-0.547,1.623,0,3.446,1.444,4.505
	c1.445,1.055,3.359,0.977,4.727-0.021l19.882-14.451V11.669z"/>
<path fill="#F68E1E" d="M10.79,39.555c-0.491,0.672-0.79,1.494-0.79,2.39c0,1.331,0.665,2.525,1.681,3.251v-0.039l19.842,14.486
	l-7.577,23.42c-0.547,1.623,0,3.446,1.444,4.505c0.35,0.254,0.729,0.44,1.119,0.566l9.71-30.015L10.79,39.555z"/>
<path fill="#FFC00E" d="M49.999,11.669c1.777,0,3.3,1.198,3.812,2.799l7.597,23.423h24.569c2.207,0,4.023,1.82,4.023,4.053
	c0,1.331-0.664,2.525-1.68,3.251v-0.02L68.458,59.644c0,0,7.597,23.42,7.577,23.42c0.547,1.623,0.02,3.446-1.445,4.523
	c-1.445,1.036-3.34,0.958-4.706-0.039L49.999,73.097v-8.242l17.19,12.492c-2.2-6.796-6.563-20.245-6.563-20.245l17.226-12.543
	H56.563l-6.565-20.223V11.669z"/>
<path fill="#F68E1E" d="M49.999,24.335l4,12.32V15.049l-0.188-0.581c-0.512-1.602-2.035-2.799-3.812-2.799V24.335z"/>
<polygon fill="#F68E1E" points="53.998,67.761 49.999,64.854 49.999,73.097 53.998,76.003 "/>
<path fill="#FFF8E1" d="M49.999,64.854l17.19,12.492c-2.2-6.796-6.563-20.245-6.563-20.245l17.226-12.543H56.563l-6.565-20.223
	V64.854z"/>
<path fill="#FFEBB2" d="M65.094,70.879c0.77,2.374,1.509,4.658,2.095,6.468l-17.19-12.492v-40.52l4,12.32v26.161L65.094,70.879z"/>
</svg>
